<svg width="18" height="18" viewBox="0 0 18 18" fill="none" xmlns="http://www.w3.org/2000/svg">
<path fill-rule="evenodd" clip-rule="evenodd" d="M12.4026 5.97399C12.6536 5.72294 13.0607 5.72294 13.3117 5.97399L15.8831 8.54543C16.1342 8.79646 16.1342 9.20352 15.8831 9.45456L13.3117 12.026C13.0607 12.277 12.6536 12.277 12.4026 12.026C12.1515 11.7749 12.1515 11.3679 12.4026 11.1169L13.8766 9.64285H7.71427C7.35922 9.64285 7.07141 9.35504 7.07141 8.99999C7.07141 8.64494 7.35922 8.35713 7.71427 8.35713H13.8766L12.4026 6.88313C12.1515 6.63209 12.1515 6.22505 12.4026 5.97399Z" fill="#4385FF"/>
<path fill-rule="evenodd" clip-rule="evenodd" d="M3.21429 3.85715C3.21429 3.50211 3.50211 3.21429 3.85715 3.21429H9.64287C9.99792 3.21429 10.2857 3.50211 10.2857 3.85715V6.42858C10.2857 6.78363 9.99792 7.07144 9.64287 7.07144C9.28782 7.07144 9.00001 6.78363 9.00001 6.42858V4.50001H4.50001V13.5H9.00001V11.5714C9.00001 11.2164 9.28782 10.9286 9.64287 10.9286C9.99792 10.9286 10.2857 11.2164 10.2857 11.5714V14.1429C10.2857 14.4979 9.99792 14.7857 9.64287 14.7857H3.85715C3.50211 14.7857 3.21429 14.4979 3.21429 14.1429V3.85715Z" fill="#4385FF"/>
</svg>
